# https://github.com/mikedh/trimesh
v -13.88778591 -11.68554211 -5.00000000
v -14.96629620 -10.26803207 -5.00000000
v -15.45209694 -9.52130318 -5.00000000
v -14.44443989 -10.99002552 -5.00000000
v -11.34119987 -14.17038059 -5.00000000
v -10.63223076 -14.70979786 -5.00000000
v -9.89764881 -15.21377850 -5.00000000
v -9.13922119 -15.68110752 -5.00000000
v -9.36135864 -14.01026344 -5.00000000
v -12.67552853 -12.99051476 -5.00000000
v -13.29767513 -12.35290813 -5.00000000
v -12.02284622 -13.59682560 -5.00000000
v -12.06006432 -11.76764011 -5.00000000
v -12.82626057 -10.92746735 -5.00000000
v -13.59538174 -9.95430088 -5.00000000
v -11.23894882 -12.55422401 -5.00000000
v -10.28495026 -13.34699631 -5.00000000
v -15.90067196 -8.75163555 -5.00000000
v -16.31094170 -7.96088457 -5.00000000
v -16.68191719 -7.15095568 -5.00000000
v -17.30250549 -5.48140812 -5.00000000
v -17.55062294 -4.62581158 -5.00000000
v -17.01270294 -6.32379913 -5.00000000
v -16.15415382 -4.79226685 -5.00000000
v -14.86037350 -7.94303513 -5.00000000
v -15.36224651 -6.92270756 -5.00000000
v -14.23578262 -9.01470947 -5.00000000
v -15.79416275 -5.87085485 -5.00000000
v -17.75646019 -3.75907159 -5.00000000
v -17.91952133 -2.88327527 -5.00000000
v -16.44058037 -3.69185591 -5.00000000
v -16.66762352 -2.47240853 -5.00000000
v -18.03941154 -2.00053310 -5.00000000
v -18.11584282 -1.11297131 -5.00000000
v -18.14863396 -0.22272842 -5.00000000
v -16.79642296 -1.34264910 -5.00000000
v -16.84873199 -0.20677543 -5.00000000
v -8.35877800 -16.11065865 -5.00000000
v -7.55819654 -16.50139809 -5.00000000
v -8.39513588 -14.60972881 -5.00000000
v -7.21229935 -15.22840786 -5.00000000
v -5.90438175 -17.16277313 -5.00000000
v -6.73940706 -16.85238457 -5.00000000
v -5.05513239 -17.43181419 -5.00000000
v -5.78657961 -15.82519436 -5.00000000
v -6.07844448 -14.04358196 -5.00000000
v -7.53162813 -12.85759735 -5.00000000
v -7.69397879 -10.62460423 -5.00000000
v -6.28975677 -12.18805504 -5.00000000
v -6.40526056 -10.30216408 -5.00000000
v -4.19370461 -17.65885925 -5.00000000
v -4.39438105 -16.26689720 -5.00000000
v -3.32217407 -17.84336472 -5.00000000
v -2.44263983 -17.98488235 -5.00000000
v -2.98252106 -16.58394051 -5.00000000
v -1.55722117 -18.08307457 -5.00000000
v -1.54866588 -16.77868080 -5.00000000
v -0.66805112 -18.13770103 -5.00000000
v -7.72019100 -8.65035439 -5.00000000
v -7.68237019 -7.51807308 -5.00000000
v -7.61866903 -6.71487856 -5.00000000
v -7.48524809 -5.92153502 -5.00000000
v -7.30498505 -5.13027191 -5.00000000
v -6.41492367 -8.40205288 -5.00000000
v -6.35268259 -7.06242990 -5.00000000
v -6.20934057 -6.17069626 -5.00000000
v -5.89589834 -4.91108036 -5.00000000
v -6.82921267 -3.58333826 -5.00000000
v -5.47633219 -3.67014050 -5.00000000
v -5.05163097 -2.62771702 -5.00000000
v -6.16355991 -1.92683625 -5.00000000
v -4.55891657 -1.55793691 -5.00000000
v -3.44967341 -3.00855541 -5.00000000
v -3.88211465 -2.58946395 -5.00000000
v -2.64414740 -3.42910528 -5.00000000
v -3.04465818 -3.27214479 -5.00000000
v -4.21238661 -2.15283179 -5.00000000
v -3.50844240 -0.74884140 -5.00000000
v -3.73568201 -0.20896479 -5.00000000
v -3.76955819 -0.11700356 -5.00000000
v -3.27846122 -1.19325066 -5.00000000
v -3.05132699 -1.54584563 -5.00000000
v -2.83380795 -1.81129336 -5.00000000
v -2.51326323 -2.08041239 -5.00000000
v -2.14318657 -3.49611044 -5.00000000
v -1.69599152 -3.43944073 -5.00000000
v -1.21031880 -3.24646974 -5.00000000
v -0.91400820 -3.05207658 -5.00000000
v -0.65786254 -2.82461834 -5.00000000
v -2.22192597 -2.19117069 -5.00000000
v -1.93525028 -2.15361619 -5.00000000
v -1.64602268 -1.97216749 -5.00000000
v -1.48550975 -1.65118313 -5.00000000
v -1.38910413 -1.34624195 -5.00000000
v -1.32673907 -1.01338494 -5.00000000
v -1.30010319 -0.58036381 -5.00000000
v -1.32012427 -0.23867372 -5.00000000
v -0.32611179 -2.24872208 -5.00000000
v -0.19067521 -1.88521445 -5.00000000
v -0.07742523 -1.43100631 -5.00000000
v -0.02261849 -1.05077004 -5.00000000
v -0.00007580 -0.58221257 -5.00000000
v -0.02742643 -0.10078584 -5.00000000
v -13.88778591 -11.68554211 5.00000000
v -14.96629620 -10.26803207 5.00000000
v -15.45209694 -9.52130318 5.00000000
v -14.44443989 -10.99002552 5.00000000
v -11.34119987 -14.17038059 5.00000000
v -10.63223076 -14.70979786 5.00000000
v -9.89764881 -15.21377850 5.00000000
v -9.13922119 -15.68110752 5.00000000
v -9.36135864 -14.01026344 5.00000000
v -12.67552853 -12.99051476 5.00000000
v -13.29767513 -12.35290813 5.00000000
v -12.02284622 -13.59682560 5.00000000
v -12.06006432 -11.76764011 5.00000000
v -12.82626057 -10.92746735 5.00000000
v -13.59538174 -9.95430088 5.00000000
v -11.23894882 -12.55422401 5.00000000
v -10.28495026 -13.34699631 5.00000000
v -15.90067196 -8.75163555 5.00000000
v -16.31094170 -7.96088457 5.00000000
v -16.68191719 -7.15095568 5.00000000
v -17.30250549 -5.48140812 5.00000000
v -17.55062294 -4.62581158 5.00000000
v -17.01270294 -6.32379913 5.00000000
v -16.15415382 -4.79226685 5.00000000
v -14.86037350 -7.94303513 5.00000000
v -15.36224651 -6.92270756 5.00000000
v -14.23578262 -9.01470947 5.00000000
v -15.79416275 -5.87085485 5.00000000
v -17.75646019 -3.75907159 5.00000000
v -17.91952133 -2.88327527 5.00000000
v -16.44058037 -3.69185591 5.00000000
v -16.66762352 -2.47240853 5.00000000
v -18.03941154 -2.00053310 5.00000000
v -18.11584282 -1.11297131 5.00000000
v -18.14863396 -0.22272842 5.00000000
v -16.79642296 -1.34264910 5.00000000
v -16.84873199 -0.20677543 5.00000000
v -8.35877800 -16.11065865 5.00000000
v -7.55819654 -16.50139809 5.00000000
v -8.39513588 -14.60972881 5.00000000
v -7.21229935 -15.22840786 5.00000000
v -5.90438175 -17.16277313 5.00000000
v -6.73940706 -16.85238457 5.00000000
v -5.05513239 -17.43181419 5.00000000
v -5.78657961 -15.82519436 5.00000000
v -6.07844448 -14.04358196 5.00000000
v -7.53162813 -12.85759735 5.00000000
v -7.69397879 -10.62460423 5.00000000
v -6.28975677 -12.18805504 5.00000000
v -6.40526056 -10.30216408 5.00000000
v -4.19370461 -17.65885925 5.00000000
v -4.39438105 -16.26689720 5.00000000
v -3.32217407 -17.84336472 5.00000000
v -2.44263983 -17.98488235 5.00000000
v -2.98252106 -16.58394051 5.00000000
v -1.55722117 -18.08307457 5.00000000
v -1.54866588 -16.77868080 5.00000000
v -0.66805112 -18.13770103 5.00000000
v -7.72019100 -8.65035439 5.00000000
v -7.68237019 -7.51807308 5.00000000
v -7.61866903 -6.71487856 5.00000000
v -7.48524809 -5.92153502 5.00000000
v -7.30498505 -5.13027191 5.00000000
v -6.41492367 -8.40205288 5.00000000
v -6.35268259 -7.06242990 5.00000000
v -6.20934057 -6.17069626 5.00000000
v -5.89589834 -4.91108036 5.00000000
v -6.82921267 -3.58333826 5.00000000
v -5.47633219 -3.67014050 5.00000000
v -5.05163097 -2.62771702 5.00000000
v -6.16355991 -1.92683625 5.00000000
v -4.55891657 -1.55793691 5.00000000
v -3.44967341 -3.00855541 5.00000000
v -3.88211465 -2.58946395 5.00000000
v -2.64414740 -3.42910528 5.00000000
v -3.04465818 -3.27214479 5.00000000
v -4.21238661 -2.15283179 5.00000000
v -3.50844240 -0.74884140 5.00000000
v -3.73568201 -0.20896479 5.00000000
v -3.76955819 -0.11700356 5.00000000
v -3.27846122 -1.19325066 5.00000000
v -3.05132699 -1.54584563 5.00000000
v -2.83380795 -1.81129336 5.00000000
v -2.51326323 -2.08041239 5.00000000
v -2.14318657 -3.49611044 5.00000000
v -1.69599152 -3.43944073 5.00000000
v -1.21031880 -3.24646974 5.00000000
v -0.91400820 -3.05207658 5.00000000
v -0.65786254 -2.82461834 5.00000000
v -2.22192597 -2.19117069 5.00000000
v -1.93525028 -2.15361619 5.00000000
v -1.64602268 -1.97216749 5.00000000
v -1.48550975 -1.65118313 5.00000000
v -1.38910413 -1.34624195 5.00000000
v -1.32673907 -1.01338494 5.00000000
v -1.30010319 -0.58036381 5.00000000
v -1.32012427 -0.23867372 5.00000000
v -0.32611179 -2.24872208 5.00000000
v -0.19067521 -1.88521445 5.00000000
v -0.07742523 -1.43100631 5.00000000
v -0.02261849 -1.05077004 5.00000000
v -0.00007580 -0.58221257 5.00000000
v -0.02742643 -0.10078584 5.00000000
v -18.13770103 0.66805112 -5.00000000
v -18.08307457 1.55722117 -5.00000000
v -16.82431412 0.93003988 -5.00000000
v -16.71030998 2.16519308 -5.00000000
v -17.98488235 2.44263983 -5.00000000
v -17.84336472 3.32217407 -5.00000000
v -17.65885925 4.19370461 -5.00000000
v -16.52623177 3.28727198 -5.00000000
v -16.26689720 4.39438105 -5.00000000
v -17.43181419 5.05513239 -5.00000000
v -17.16277313 5.90438175 -5.00000000
v -15.89954948 5.57914114 -5.00000000
v -16.85238457 6.73940706 -5.00000000
v -16.50139809 7.55819654 -5.00000000
v -16.11065865 8.35877800 -5.00000000
v -15.48706818 6.63876581 -5.00000000
v -15.00406075 7.66815853 -5.00000000
v -14.39930248 8.75114822 -5.00000000
v -15.68110752 9.13922119 -5.00000000
v -15.21377850 9.89764881 -5.00000000
v -13.77630424 9.70236778 -5.00000000
v -14.70979786 10.63223076 -5.00000000
v -14.17038059 11.34119987 -5.00000000
v -13.09057045 10.60940456 -5.00000000
v -13.59682560 12.02284622 -5.00000000
v -12.99051476 12.67552853 -5.00000000
v -12.34522438 11.46812725 -5.00000000
v -11.46812725 12.34522438 -5.00000000
v -12.35290813 13.29767513 -5.00000000
v -10.52888203 13.15542221 -5.00000000
v -11.68554211 13.88778591 -5.00000000
v -10.99002552 14.44443989 -5.00000000
v -10.26803207 14.96629620 -5.00000000
v -9.61765575 13.83557701 -5.00000000
v -9.52130318 15.45209694 -5.00000000
v -5.68431377 1.22862637 -5.00000000
v -5.21917057 0.02593786 -5.00000000
v -6.17791939 2.81117630 -5.00000000
v -6.58383942 4.47378063 -5.00000000
v -4.92350817 3.15246654 -5.00000000
v -6.91522408 6.23431253 -5.00000000
v -7.17397499 8.05983448 -5.00000000
v -5.39978027 5.16518116 -5.00000000
v -5.76538658 7.31741047 -5.00000000
v -3.55076194 0.12442127 -5.00000000
v -4.29416513 1.21236706 -5.00000000
v -4.45588350 1.65406156 -5.00000000
v -3.96125746 1.48850095 -5.00000000
v -3.52956200 1.77037549 -5.00000000
v -3.04304194 0.54557133 -5.00000000
v -2.76040721 0.70543730 -5.00000000
v -2.49399281 0.80806565 -5.00000000
v -3.07880425 1.98188102 -5.00000000
v -2.64081740 2.11045527 -5.00000000
v -2.25151896 0.85734570 -5.00000000
v -2.03742337 0.85953343 -5.00000000
v -1.84990311 0.82096398 -5.00000000
v -1.51285231 0.49123192 -5.00000000
v -1.39378798 0.15748605 -5.00000000
v -1.65021694 0.72322196 -5.00000000
v -2.25544572 2.16073489 -5.00000000
v -1.81306219 2.14178777 -5.00000000
v -1.46310568 2.06222630 -5.00000000
v -0.08576954 0.27126136 -5.00000000
v -0.32951126 1.02962756 -5.00000000
v -0.20174608 0.70625740 -5.00000000
v -0.72561145 1.64435959 -5.00000000
v -1.12745106 1.92273748 -5.00000000
v -0.50985444 1.35968316 -5.00000000
v -7.40826273 10.42863560 -5.00000000
v -7.53380299 12.39680004 -5.00000000
v -6.03135824 9.59220600 -5.00000000
v -6.23534012 12.46003437 -5.00000000
v -8.66263103 14.45272732 -5.00000000
v -7.62520361 15.02584839 -5.00000000
v -8.75163555 15.90067196 -5.00000000
v -7.96088457 16.31094170 -5.00000000
v -7.15095568 16.68191719 -5.00000000
v -6.33562136 15.61348248 -5.00000000
v -5.77383327 15.82988834 -5.00000000
v -6.32379913 17.01270294 -5.00000000
v -5.48140812 17.30250549 -5.00000000
v -4.62581158 17.55062294 -5.00000000
v -4.29448652 16.29355431 -5.00000000
v -3.75907159 17.75646019 -5.00000000
v -2.77878618 16.61929131 -5.00000000
v -2.88327527 17.91952133 -5.00000000
v -1.23956287 16.80434418 -5.00000000
v -2.00053310 18.03941154 -5.00000000
v -1.11297131 18.11584282 -5.00000000
v -0.22272842 18.14863396 -5.00000000
v -18.13770103 0.66805112 5.00000000
v -18.08307457 1.55722117 5.00000000
v -16.82431412 0.93003988 5.00000000
v -16.71030998 2.16519308 5.00000000
v -17.98488235 2.44263983 5.00000000
v -17.84336472 3.32217407 5.00000000
v -17.65885925 4.19370461 5.00000000
v -16.52623177 3.28727198 5.00000000
v -16.26689720 4.39438105 5.00000000
v -17.43181419 5.05513239 5.00000000
v -17.16277313 5.90438175 5.00000000
v -15.89954948 5.57914114 5.00000000
v -16.85238457 6.73940706 5.00000000
v -16.50139809 7.55819654 5.00000000
v -16.11065865 8.35877800 5.00000000
v -15.48706818 6.63876581 5.00000000
v -15.00406075 7.66815853 5.00000000
v -14.39930248 8.75114822 5.00000000
v -15.68110752 9.13922119 5.00000000
v -15.21377850 9.89764881 5.00000000
v -13.77630424 9.70236778 5.00000000
v -14.70979786 10.63223076 5.00000000
v -14.17038059 11.34119987 5.00000000
v -13.09057045 10.60940456 5.00000000
v -13.59682560 12.02284622 5.00000000
v -12.99051476 12.67552853 5.00000000
v -12.34522438 11.46812725 5.00000000
v -11.46812725 12.34522438 5.00000000
v -12.35290813 13.29767513 5.00000000
v -10.52888203 13.15542221 5.00000000
v -11.68554211 13.88778591 5.00000000
v -10.99002552 14.44443989 5.00000000
v -10.26803207 14.96629620 5.00000000
v -9.61765575 13.83557701 5.00000000
v -9.52130318 15.45209694 5.00000000
v -5.68431377 1.22862637 5.00000000
v -5.21917057 0.02593786 5.00000000
v -6.17791939 2.81117630 5.00000000
v -6.58383942 4.47378063 5.00000000
v -4.92350817 3.15246654 5.00000000
v -6.91522408 6.23431253 5.00000000
v -7.17397499 8.05983448 5.00000000
v -5.39978027 5.16518116 5.00000000
v -5.76538658 7.31741047 5.00000000
v -3.55076194 0.12442127 5.00000000
v -4.29416513 1.21236706 5.00000000
v -4.45588350 1.65406156 5.00000000
v -3.96125746 1.48850095 5.00000000
v -3.52956200 1.77037549 5.00000000
v -3.04304194 0.54557133 5.00000000
v -2.76040721 0.70543730 5.00000000
v -2.49399281 0.80806565 5.00000000
v -3.07880425 1.98188102 5.00000000
v -2.64081740 2.11045527 5.00000000
v -2.25151896 0.85734570 5.00000000
v -2.03742337 0.85953343 5.00000000
v -1.84990311 0.82096398 5.00000000
v -1.51285231 0.49123192 5.00000000
v -1.39378798 0.15748605 5.00000000
v -1.65021694 0.72322196 5.00000000
v -2.25544572 2.16073489 5.00000000
v -1.81306219 2.14178777 5.00000000
v -1.46310568 2.06222630 5.00000000
v -0.08576954 0.27126136 5.00000000
v -0.32951126 1.02962756 5.00000000
v -0.20174608 0.70625740 5.00000000
v -0.72561145 1.64435959 5.00000000
v -1.12745106 1.92273748 5.00000000
v -0.50985444 1.35968316 5.00000000
v -7.40826273 10.42863560 5.00000000
v -7.53380299 12.39680004 5.00000000
v -6.03135824 9.59220600 5.00000000
v -6.23534012 12.46003437 5.00000000
v -8.66263103 14.45272732 5.00000000
v -7.62520361 15.02584839 5.00000000
v -8.75163555 15.90067196 5.00000000
v -7.96088457 16.31094170 5.00000000
v -7.15095568 16.68191719 5.00000000
v -6.33562136 15.61348248 5.00000000
v -5.77383327 15.82988834 5.00000000
v -6.32379913 17.01270294 5.00000000
v -5.48140812 17.30250549 5.00000000
v -4.62581158 17.55062294 5.00000000
v -4.29448652 16.29355431 5.00000000
v -3.75907159 17.75646019 5.00000000
v -2.77878618 16.61929131 5.00000000
v -2.88327527 17.91952133 5.00000000
v -1.23956287 16.80434418 5.00000000
v -2.00053310 18.03941154 5.00000000
v -1.11297131 18.11584282 5.00000000
v -0.22272842 18.14863396 5.00000000
v 0.22272842 -18.14863396 -5.00000000
v 1.11297131 -18.11584282 -5.00000000
v 0.00000000 -16.85000038 -5.00000000
v 2.00053310 -18.03941154 -5.00000000
v 1.54866588 -16.77868080 -5.00000000
v 2.88327527 -17.91952133 -5.00000000
v 2.98252106 -16.58394051 -5.00000000
v 3.75907159 -17.75646019 -5.00000000
v 4.39438105 -16.26689720 -5.00000000
v 4.62581158 -17.55062294 -5.00000000
v 5.48140812 -17.30250549 -5.00000000
v 6.32379913 -17.01270294 -5.00000000
v 5.77383327 -15.82988834 -5.00000000
v 6.07844448 -14.04358196 -5.00000000
v 7.15095568 -16.68191719 -5.00000000
v 7.96088457 -16.31094170 -5.00000000
v 8.75163555 -15.90067196 -5.00000000
v 7.21229935 -15.22840786 -5.00000000
v 8.30533409 -14.66096592 -5.00000000
v 6.28975677 -12.18805504 -5.00000000
v 6.40526056 -10.30216408 -5.00000000
v 7.50274515 -13.12823868 -5.00000000
v 7.68114519 -10.90518284 -5.00000000
v 0.91400820 -3.05207658 -5.00000000
v 0.65786254 -2.82461834 -5.00000000
v 1.69599152 -3.43944073 -5.00000000
v 2.14318657 -3.49611044 -5.00000000
v 1.21031880 -3.24646974 -5.00000000
v 0.19067521 -1.88521445 -5.00000000
v 0.32611179 -2.24872208 -5.00000000
v 0.07742523 -1.43100631 -5.00000000
v 0.02261849 -1.05077004 -5.00000000
v 0.00016604 -0.56493539 -5.00000000
v 0.02945749 -0.08291744 -5.00000000
v 1.51442742 -1.72142351 -5.00000000
v 1.64602268 -1.97216749 -5.00000000
v 1.41015649 -1.42565143 -5.00000000
v 1.97845650 -2.16877174 -5.00000000
v 2.26429701 -2.18391919 -5.00000000
v 1.33897221 -1.09842551 -5.00000000
v 1.30559337 -0.40788808 -5.00000000
v 2.64414740 -3.42910528 -5.00000000
v 3.04465818 -3.27214479 -5.00000000
v 3.44967341 -3.00855541 -5.00000000
v 3.88211465 -2.58946395 -5.00000000
v 2.57195520 -2.04207730 -5.00000000
v 2.90478182 -1.73213160 -5.00000000
v 3.20212412 -1.32078338 -5.00000000
v 4.21238661 -2.15283179 -5.00000000
v 3.50844240 -0.74884140 -5.00000000
v 3.76955819 -0.11700356 -5.00000000
v 6.41492367 -8.40205288 -5.00000000
v 6.35268259 -7.06242990 -5.00000000
v 6.20934057 -6.17069626 -5.00000000
v 5.89589834 -4.91108036 -5.00000000
v 7.72027969 -8.65593338 -5.00000000
v 7.68237019 -7.51807308 -5.00000000
v 7.62007666 -6.72519588 -5.00000000
v 7.48524809 -5.92153502 -5.00000000
v 7.30498505 -5.13027191 -5.00000000
v 5.47633219 -3.67014050 -5.00000000
v 5.05163097 -2.62771702 -5.00000000
v 4.55891657 -1.55793691 -5.00000000
v 6.16355991 -1.92683625 -5.00000000
v 6.83137608 -3.58941674 -5.00000000
v 9.52130318 -15.45209694 -5.00000000
v 9.27521706 -14.06743908 -5.00000000
v 10.26803207 -14.96629620 -5.00000000
v 10.99002552 -14.44443989 -5.00000000
v 11.68554211 -13.88778591 -5.00000000
v 10.20286083 -13.40985203 -5.00000000
v 11.16170597 -12.62294865 -5.00000000
v 12.35290813 -13.29767513 -5.00000000
v 12.06006432 -11.76764011 -5.00000000
v 12.99051476 -12.67552853 -5.00000000
v 13.59682560 -12.02284622 -5.00000000
v 12.82626057 -10.92746735 -5.00000000
v 13.53404713 -10.03753281 -5.00000000
v 14.17038059 -11.34119987 -5.00000000
v 14.70979786 -10.63223076 -5.00000000
v 14.18020153 -9.10188961 -5.00000000
v 15.21377850 -9.89764881 -5.00000000
v 15.68110752 -9.13922119 -5.00000000
v 14.76178074 -8.12479687 -5.00000000
v 15.27613735 -7.11070442 -5.00000000
v 15.75784206 -5.96765518 -5.00000000
v 16.11065865 -8.35877800 -5.00000000
v 16.50139809 -7.55819654 -5.00000000
v 16.85238457 -6.73940706 -5.00000000
v 16.12444496 -4.89129686 -5.00000000
v 17.16277313 -5.90438175 -5.00000000
v 17.43181419 -5.05513239 -5.00000000
v 16.44058037 -3.69185591 -5.00000000
v 16.65213966 -2.57463264 -5.00000000
v 17.65885925 -4.19370461 -5.00000000
v 17.84336472 -3.32217407 -5.00000000
v 17.98488235 -2.44263983 -5.00000000
v 16.79642296 -1.34264910 -5.00000000
v 16.84873199 -0.20677543 -5.00000000
v 18.08307457 -1.55722117 -5.00000000
v 18.13770103 -0.66805112 -5.00000000
v 0.22272842 -18.14863396 5.00000000
v 1.11297131 -18.11584282 5.00000000
v 0.00000000 -16.85000038 5.00000000
v 2.00053310 -18.03941154 5.00000000
v 1.54866588 -16.77868080 5.00000000
v 2.88327527 -17.91952133 5.00000000
v 2.98252106 -16.58394051 5.00000000
v 3.75907159 -17.75646019 5.00000000
v 4.39438105 -16.26689720 5.00000000
v 4.62581158 -17.55062294 5.00000000
v 5.48140812 -17.30250549 5.00000000
v 6.32379913 -17.01270294 5.00000000
v 5.77383327 -15.82988834 5.00000000
v 6.07844448 -14.04358196 5.00000000
v 7.15095568 -16.68191719 5.00000000
v 7.96088457 -16.31094170 5.00000000
v 8.75163555 -15.90067196 5.00000000
v 7.21229935 -15.22840786 5.00000000
v 8.30533409 -14.66096592 5.00000000
v 6.28975677 -12.18805504 5.00000000
v 6.40526056 -10.30216408 5.00000000
v 7.50274515 -13.12823868 5.00000000
v 7.68114519 -10.90518284 5.00000000
v 0.91400820 -3.05207658 5.00000000
v 0.65786254 -2.82461834 5.00000000
v 1.69599152 -3.43944073 5.00000000
v 2.14318657 -3.49611044 5.00000000
v 1.21031880 -3.24646974 5.00000000
v 0.19067521 -1.88521445 5.00000000
v 0.32611179 -2.24872208 5.00000000
v 0.07742523 -1.43100631 5.00000000
v 0.02261849 -1.05077004 5.00000000
v 0.00016604 -0.56493539 5.00000000
v 0.02945749 -0.08291744 5.00000000
v 1.51442742 -1.72142351 5.00000000
v 1.64602268 -1.97216749 5.00000000
v 1.41015649 -1.42565143 5.00000000
v 1.97845650 -2.16877174 5.00000000
v 2.26429701 -2.18391919 5.00000000
v 1.33897221 -1.09842551 5.00000000
v 1.30559337 -0.40788808 5.00000000
v 2.64414740 -3.42910528 5.00000000
v 3.04465818 -3.27214479 5.00000000
v 3.44967341 -3.00855541 5.00000000
v 3.88211465 -2.58946395 5.00000000
v 2.57195520 -2.04207730 5.00000000
v 2.90478182 -1.73213160 5.00000000
v 3.20212412 -1.32078338 5.00000000
v 4.21238661 -2.15283179 5.00000000
v 3.50844240 -0.74884140 5.00000000
v 3.76955819 -0.11700356 5.00000000
v 6.41492367 -8.40205288 5.00000000
v 6.35268259 -7.06242990 5.00000000
v 6.20934057 -6.17069626 5.00000000
v 5.89589834 -4.91108036 5.00000000
v 7.72027969 -8.65593338 5.00000000
v 7.68237019 -7.51807308 5.00000000
v 7.62007666 -6.72519588 5.00000000
v 7.48524809 -5.92153502 5.00000000
v 7.30498505 -5.13027191 5.00000000
v 5.47633219 -3.67014050 5.00000000
v 5.05163097 -2.62771702 5.00000000
v 4.55891657 -1.55793691 5.00000000
v 6.16355991 -1.92683625 5.00000000
v 6.83137608 -3.58941674 5.00000000
v 9.52130318 -15.45209694 5.00000000
v 9.27521706 -14.06743908 5.00000000
v 10.26803207 -14.96629620 5.00000000
v 10.99002552 -14.44443989 5.00000000
v 11.68554211 -13.88778591 5.00000000
v 10.20286083 -13.40985203 5.00000000
v 11.16170597 -12.62294865 5.00000000
v 12.35290813 -13.29767513 5.00000000
v 12.06006432 -11.76764011 5.00000000
v 12.99051476 -12.67552853 5.00000000
v 13.59682560 -12.02284622 5.00000000
v 12.82626057 -10.92746735 5.00000000
v 13.53404713 -10.03753281 5.00000000
v 14.17038059 -11.34119987 5.00000000
v 14.70979786 -10.63223076 5.00000000
v 14.18020153 -9.10188961 5.00000000
v 15.21377850 -9.89764881 5.00000000
v 15.68110752 -9.13922119 5.00000000
v 14.76178074 -8.12479687 5.00000000
v 15.27613735 -7.11070442 5.00000000
v 15.75784206 -5.96765518 5.00000000
v 16.11065865 -8.35877800 5.00000000
v 16.50139809 -7.55819654 5.00000000
v 16.85238457 -6.73940706 5.00000000
v 16.12444496 -4.89129686 5.00000000
v 17.16277313 -5.90438175 5.00000000
v 17.43181419 -5.05513239 5.00000000
v 16.44058037 -3.69185591 5.00000000
v 16.65213966 -2.57463264 5.00000000
v 17.65885925 -4.19370461 5.00000000
v 17.84336472 -3.32217407 5.00000000
v 17.98488235 -2.44263983 5.00000000
v 16.79642296 -1.34264910 5.00000000
v 16.84873199 -0.20677543 5.00000000
v 18.08307457 -1.55722117 5.00000000
v 18.13770103 -0.66805112 5.00000000
v 0.10674906 0.36787796 -5.00000000
v 0.20890296 0.72740686 -5.00000000
v 0.37994963 1.13343680 -5.00000000
v 0.55719829 1.43050694 -5.00000000
v 0.75394434 1.67279422 -5.00000000
v 1.02040267 1.86297035 -5.00000000
v 1.41438997 0.23017812 -5.00000000
v 1.51285231 0.49123192 -5.00000000
v 1.65021694 0.72322196 -5.00000000
v 1.84990311 0.82096398 -5.00000000
v 2.08825660 0.86301500 -5.00000000
v 1.31433630 2.00876427 -5.00000000
v 1.66009116 2.11454678 -5.00000000
v 2.01625991 2.16112947 -5.00000000
v 2.36937284 0.83902746 -5.00000000
v 2.62464714 0.76372522 -5.00000000
v 3.18773651 0.44362426 -5.00000000
v 2.90023446 0.63280195 -5.00000000
v 2.37484384 2.15157533 -5.00000000
v 2.75747037 2.08356214 -5.00000000
v 3.19311547 1.93593156 -5.00000000
v 3.47852373 0.19557542 -5.00000000
v 3.96125746 1.48850095 -5.00000000
v 3.54915857 1.75931180 -5.00000000
v 4.29416513 1.21236706 -5.00000000
v 5.21917057 0.02593786 -5.00000000
v 5.68431377 1.22862637 -5.00000000
v 4.69968367 2.39022541 -5.00000000
v 5.12797356 3.93972731 -5.00000000
v 6.17791939 2.81117630 -5.00000000
v 6.58383942 4.47378063 -5.00000000
v 5.48141146 5.58500862 -5.00000000
v 5.76538658 7.31741047 -5.00000000
v 6.91522408 6.23431253 -5.00000000
v 7.17397499 8.05983448 -5.00000000
v 0.31015339 16.84714508 -5.00000000
v 0.66805112 18.13770103 -5.00000000
v 1.85724425 16.74733162 -5.00000000
v 1.55722117 18.08307457 -5.00000000
v 3.38861299 16.50575066 -5.00000000
v 2.44263983 17.98488235 -5.00000000
v 3.32217407 17.84336472 -5.00000000
v 4.19370461 17.65885925 -5.00000000
v 5.98558521 9.12825298 -5.00000000
v 6.14791727 11.00889874 -5.00000000
v 6.27872133 13.44481945 -5.00000000
v 7.40826273 10.42863560 -5.00000000
v 7.53380299 12.39680004 -5.00000000
v 6.33562136 15.61348248 -5.00000000
v 4.89129686 16.12444496 -5.00000000
v 5.05513239 17.43181419 -5.00000000
v 6.73940706 16.85238457 -5.00000000
v 5.90438175 17.16277313 -5.00000000
v 7.62520361 15.02584839 -5.00000000
v 8.66263103 14.45272732 -5.00000000
v 7.55819654 16.50139809 -5.00000000
v 8.35877800 16.11065865 -5.00000000
v 16.82431412 0.93003988 -5.00000000
v 16.71030998 2.16519308 -5.00000000
v 18.14863396 0.22272842 -5.00000000
v 18.11584282 1.11297131 -5.00000000
v 18.03941154 2.00053310 -5.00000000
v 16.50575066 3.38861299 -5.00000000
v 16.23962593 4.49411011 -5.00000000
v 17.91952133 2.88327527 -5.00000000
v 17.75646019 3.75907159 -5.00000000
v 15.44604206 6.73366785 -5.00000000
v 14.39930248 8.75114822 -5.00000000
v 14.95672798 7.76007748 -5.00000000
v 15.89954948 5.57914114 -5.00000000
v 17.01270294 6.32379913 -5.00000000
v 17.55062294 4.62581158 -5.00000000
v 17.30250549 5.48140812 -5.00000000
v 16.68191719 7.15095568 -5.00000000
v 16.31094170 7.96088457 -5.00000000
v 15.90067196 8.75163555 -5.00000000
v 10.52888203 13.15542221 -5.00000000
v 13.02522659 10.68952656 -5.00000000
v 11.46812725 12.34522438 -5.00000000
v 12.27462482 11.54366016 -5.00000000
v 12.02284622 13.59682560 -5.00000000
v 13.29767513 12.35290813 -5.00000000
v 12.67552853 12.99051476 -5.00000000
v 9.61765575 13.83557701 -5.00000000
v 9.13922119 15.68110752 -5.00000000
v 9.89764881 15.21377850 -5.00000000
v 10.63223076 14.70979786 -5.00000000
v 11.34119987 14.17038059 -5.00000000
v 13.77630424 9.70236778 -5.00000000
v 14.44443989 10.99002552 -5.00000000
v 15.45209694 9.52130318 -5.00000000
v 14.96629620 10.26803207 -5.00000000
v 13.88778591 11.68554211 -5.00000000
v 0.10674906 0.36787796 5.00000000
v 0.20890296 0.72740686 5.00000000
v 0.37994963 1.13343680 5.00000000
v 0.55719829 1.43050694 5.00000000
v 0.75394434 1.67279422 5.00000000
v 1.02040267 1.86297035 5.00000000
v 1.41438997 0.23017812 5.00000000
v 1.51285231 0.49123192 5.00000000
v 1.65021694 0.72322196 5.00000000
v 1.84990311 0.82096398 5.00000000
v 2.08825660 0.86301500 5.00000000
v 1.31433630 2.00876427 5.00000000
v 1.66009116 2.11454678 5.00000000
v 2.01625991 2.16112947 5.00000000
v 2.36937284 0.83902746 5.00000000
v 2.62464714 0.76372522 5.00000000
v 3.18773651 0.44362426 5.00000000
v 2.90023446 0.63280195 5.00000000
v 2.37484384 2.15157533 5.00000000
v 2.75747037 2.08356214 5.00000000
v 3.19311547 1.93593156 5.00000000
v 3.47852373 0.19557542 5.00000000
v 3.96125746 1.48850095 5.00000000
v 3.54915857 1.75931180 5.00000000
v 4.29416513 1.21236706 5.00000000
v 5.21917057 0.02593786 5.00000000
v 5.68431377 1.22862637 5.00000000
v 4.69968367 2.39022541 5.00000000
v 5.12797356 3.93972731 5.00000000
v 6.17791939 2.81117630 5.00000000
v 6.58383942 4.47378063 5.00000000
v 5.48141146 5.58500862 5.00000000
v 5.76538658 7.31741047 5.00000000
v 6.91522408 6.23431253 5.00000000
v 7.17397499 8.05983448 5.00000000
v 0.31015339 16.84714508 5.00000000
v 0.66805112 18.13770103 5.00000000
v 1.85724425 16.74733162 5.00000000
v 1.55722117 18.08307457 5.00000000
v 3.38861299 16.50575066 5.00000000
v 2.44263983 17.98488235 5.00000000
v 3.32217407 17.84336472 5.00000000
v 4.19370461 17.65885925 5.00000000
v 5.98558521 9.12825298 5.00000000
v 6.14791727 11.00889874 5.00000000
v 6.27872133 13.44481945 5.00000000
v 7.40826273 10.42863560 5.00000000
v 7.53380299 12.39680004 5.00000000
v 6.33562136 15.61348248 5.00000000
v 4.89129686 16.12444496 5.00000000
v 5.05513239 17.43181419 5.00000000
v 6.73940706 16.85238457 5.00000000
v 5.90438175 17.16277313 5.00000000
v 7.62520361 15.02584839 5.00000000
v 8.66263103 14.45272732 5.00000000
v 7.55819654 16.50139809 5.00000000
v 8.35877800 16.11065865 5.00000000
v 16.82431412 0.93003988 5.00000000
v 16.71030998 2.16519308 5.00000000
v 18.14863396 0.22272842 5.00000000
v 18.11584282 1.11297131 5.00000000
v 18.03941154 2.00053310 5.00000000
v 16.50575066 3.38861299 5.00000000
v 16.23962593 4.49411011 5.00000000
v 17.91952133 2.88327527 5.00000000
v 17.75646019 3.75907159 5.00000000
v 15.44604206 6.73366785 5.00000000
v 14.39930248 8.75114822 5.00000000
v 14.95672798 7.76007748 5.00000000
v 15.89954948 5.57914114 5.00000000
v 17.01270294 6.32379913 5.00000000
v 17.55062294 4.62581158 5.00000000
v 17.30250549 5.48140812 5.00000000
v 16.68191719 7.15095568 5.00000000
v 16.31094170 7.96088457 5.00000000
v 15.90067196 8.75163555 5.00000000
v 10.52888203 13.15542221 5.00000000
v 13.02522659 10.68952656 5.00000000
v 11.46812725 12.34522438 5.00000000
v 12.27462482 11.54366016 5.00000000
v 12.02284622 13.59682560 5.00000000
v 13.29767513 12.35290813 5.00000000
v 12.67552853 12.99051476 5.00000000
v 9.61765575 13.83557701 5.00000000
v 9.13922119 15.68110752 5.00000000
v 9.89764881 15.21377850 5.00000000
v 10.63223076 14.70979786 5.00000000
v 11.34119987 14.17038059 5.00000000
v 13.77630424 9.70236778 5.00000000
v 14.44443989 10.99002552 5.00000000
v 15.45209694 9.52130318 5.00000000
v 14.96629620 10.26803207 5.00000000
v 13.88778591 11.68554211 5.00000000
f 27 2 3
f 15 4 2
f 14 1 4
f 14 4 15
f 15 2 27
f 17 6 5
f 40 8 7
f 9 7 6
f 9 6 17
f 40 7 9
f 14 11 1
f 13 10 11
f 13 11 14
f 16 12 10
f 16 5 12
f 16 10 13
f 17 5 16
f 104 1 11
f 105 2 4
f 106 3 2
f 107 4 1
f 118 15 27
f 115 12 5
f 109 6 7
f 108 5 6
f 110 7 8
f 112 9 17
f 114 11 10
f 113 10 12
f 116 13 14
f 119 16 13
f 117 14 15
f 120 17 16
f 26 19 20
f 28 20 23
f 28 23 21
f 26 20 28
f 24 21 22
f 28 21 24
f 25 3 18
f 25 18 19
f 27 3 25
f 25 19 26
f 31 22 29
f 32 29 30
f 32 30 33
f 24 22 31
f 31 29 32
f 36 33 34
f 32 33 36
f 37 34 35
f 36 34 37
f 122 19 18
f 123 20 19
f 124 21 23
f 125 22 21
f 126 23 20
f 131 28 24
f 121 18 3
f 128 25 26
f 130 27 25
f 129 26 28
f 132 29 22
f 133 30 29
f 136 33 30
f 127 24 31
f 134 31 32
f 137 34 33
f 138 35 34
f 135 32 36
f 139 36 37
f 41 39 38
f 40 38 8
f 41 38 40
f 41 45 39
f 47 46 41
f 39 45 43
f 43 45 42
f 44 52 51
f 42 52 44
f 42 45 52
f 41 46 45
f 48 49 47
f 59 50 48
f 59 64 50
f 47 49 46
f 48 50 49
f 51 55 53
f 51 52 55
f 53 55 54
f 54 55 57
f 54 57 56
f 56 57 58
f 58 57 391
f 58 391 389
f 141 38 39
f 142 39 43
f 111 8 38
f 143 40 9
f 144 41 40
f 150 47 41
f 146 43 42
f 145 42 44
f 147 44 51
f 155 52 45
f 148 45 46
f 151 48 47
f 162 59 48
f 149 46 49
f 152 49 50
f 153 50 64
f 154 51 53
f 158 55 52
f 156 53 54
f 157 54 56
f 159 56 58
f 160 57 55
f 161 58 389
f 492 391 57
f 60 64 59
f 60 65 64
f 61 65 60
f 62 66 61
f 63 66 62
f 61 66 65
f 63 67 66
f 68 67 63
f 68 69 67
f 71 69 68
f 71 70 69
f 71 72 70
f 243 72 71
f 74 83 73
f 73 84 76
f 73 83 84
f 76 84 75
f 75 90 85
f 75 84 90
f 72 81 77
f 77 82 74
f 72 78 81
f 77 81 82
f 243 79 72
f 80 79 243
f 72 79 78
f 74 82 83
f 85 90 86
f 86 90 91
f 86 91 87
f 87 91 92
f 87 92 88
f 88 92 89
f 89 92 98
f 98 92 93
f 98 93 99
f 99 93 94
f 100 94 95
f 99 94 100
f 100 95 101
f 101 95 96
f 97 103 96
f 101 96 102
f 96 103 102
f 97 270 103
f 163 60 59
f 164 61 60
f 165 62 61
f 166 63 62
f 167 64 65
f 168 65 66
f 169 66 67
f 171 68 63
f 170 67 69
f 174 71 68
f 172 69 70
f 173 70 72
f 334 243 71
f 180 77 74
f 177 74 73
f 178 75 85
f 176 73 76
f 179 76 75
f 175 72 77
f 181 78 79
f 182 79 80
f 183 80 251
f 186 83 82
f 185 82 81
f 187 84 83
f 193 90 84
f 184 81 78
f 188 85 86
f 189 86 87
f 190 87 88
f 191 88 89
f 192 89 98
f 194 91 90
f 195 92 91
f 196 93 92
f 197 94 93
f 198 95 94
f 199 96 95
f 200 97 96
f 201 98 99
f 202 99 100
f 203 100 101
f 204 101 102
f 205 102 103
f 104 107 1
f 106 121 3
f 105 106 2
f 107 105 4
f 130 118 27
f 108 115 5
f 109 108 6
f 110 109 7
f 111 110 8
f 113 114 10
f 114 104 11
f 115 113 12
f 116 119 13
f 118 117 15
f 117 116 14
f 119 120 16
f 120 112 17
f 130 106 105
f 118 105 107
f 117 107 104
f 117 118 107
f 118 130 105
f 120 108 109
f 143 110 111
f 112 109 110
f 112 120 109
f 143 112 110
f 117 104 114
f 116 114 113
f 116 117 114
f 119 113 115
f 119 115 108
f 119 116 113
f 120 119 108
f 121 122 18
f 123 126 20
f 122 123 19
f 126 124 23
f 124 125 21
f 127 131 24
f 129 128 26
f 128 130 25
f 131 129 28
f 125 132 22
f 132 133 29
f 133 136 30
f 134 127 31
f 135 134 32
f 136 137 33
f 137 138 34
f 139 135 36
f 140 139 37
f 129 123 122
f 131 126 123
f 131 124 126
f 129 131 123
f 127 125 124
f 131 127 124
f 128 121 106
f 128 122 121
f 130 128 106
f 128 129 122
f 134 132 125
f 135 133 132
f 135 136 133
f 127 134 125
f 134 135 132
f 139 137 136
f 135 139 136
f 140 138 137
f 139 140 137
f 141 111 38
f 142 141 39
f 146 142 43
f 143 144 40
f 112 143 9
f 144 150 41
f 145 146 42
f 147 145 44
f 148 155 45
f 149 148 46
f 150 151 47
f 151 162 48
f 152 149 49
f 153 152 50
f 154 147 51
f 156 154 53
f 155 158 52
f 157 156 54
f 158 160 55
f 159 157 56
f 161 159 58
f 490 161 389
f 160 492 57
f 144 141 142
f 143 111 141
f 144 143 141
f 144 142 148
f 150 144 149
f 142 146 148
f 146 145 148
f 147 154 155
f 145 147 155
f 145 155 148
f 144 148 149
f 151 150 152
f 162 151 153
f 162 153 167
f 150 149 152
f 151 152 153
f 154 156 158
f 154 158 155
f 156 157 158
f 157 160 158
f 157 159 160
f 159 161 160
f 161 492 160
f 161 490 492
f 162 163 59
f 163 164 60
f 164 165 61
f 165 166 62
f 166 171 63
f 167 153 64
f 168 167 65
f 169 168 66
f 170 169 67
f 171 174 68
f 172 170 69
f 173 172 70
f 174 334 71
f 175 173 72
f 177 180 74
f 176 177 73
f 188 178 85
f 179 176 76
f 178 179 75
f 180 175 77
f 181 184 78
f 183 182 80
f 182 181 79
f 184 185 81
f 185 186 82
f 186 187 83
f 187 193 84
f 189 188 86
f 190 189 87
f 191 190 88
f 192 191 89
f 201 192 98
f 193 194 90
f 194 195 91
f 195 196 92
f 196 197 93
f 197 198 94
f 198 199 95
f 199 200 96
f 200 356 97
f 202 201 99
f 203 202 100
f 204 203 101
f 205 204 102
f 206 205 103
f 163 162 167
f 163 167 168
f 164 163 168
f 165 164 169
f 166 165 169
f 164 168 169
f 166 169 170
f 171 166 170
f 171 170 172
f 174 171 172
f 174 172 173
f 174 173 175
f 334 174 175
f 177 176 186
f 176 179 187
f 176 187 186
f 179 178 187
f 178 188 193
f 178 193 187
f 175 180 184
f 180 177 185
f 175 184 181
f 180 185 184
f 334 175 182
f 183 334 182
f 175 181 182
f 177 186 185
f 188 189 193
f 189 194 193
f 189 190 194
f 190 195 194
f 190 191 195
f 191 192 195
f 192 201 195
f 201 196 195
f 201 202 196
f 202 197 196
f 203 198 197
f 202 203 197
f 203 204 198
f 204 199 198
f 200 199 206
f 204 205 199
f 199 205 206
f 200 206 361
f 37 35 207
f 209 207 208
f 37 207 209
f 210 208 211
f 209 208 210
f 210 211 212
f 210 212 214
f 214 212 213
f 214 213 215
f 215 213 216
f 215 216 218
f 218 216 217
f 218 217 219
f 218 219 222
f 222 219 220
f 222 220 223
f 223 220 221
f 223 221 225
f 223 225 224
f 298 207 35
f 299 208 207
f 302 211 208
f 140 37 209
f 300 209 210
f 303 212 211
f 304 213 212
f 301 210 214
f 305 214 215
f 307 216 213
f 308 217 216
f 306 215 218
f 310 219 217
f 311 220 219
f 312 221 220
f 309 218 222
f 313 222 223
f 316 225 221
f 314 223 224
f 315 224 227
f 224 225 226
f 224 226 227
f 227 226 228
f 227 228 230
f 230 228 229
f 230 229 231
f 230 231 233
f 233 231 232
f 233 232 234
f 234 232 235
f 234 235 237
f 234 237 236
f 236 237 238
f 236 238 240
f 240 238 239
f 240 241 280
f 240 239 241
f 317 226 225
f 319 228 226
f 320 229 228
f 322 231 229
f 318 227 230
f 321 230 233
f 323 232 231
f 326 235 232
f 324 233 234
f 325 234 236
f 327 236 240
f 328 237 235
f 329 238 237
f 330 239 238
f 331 240 280
f 332 241 239
f 242 252 243
f 242 253 252
f 242 246 253
f 245 246 244
f 244 246 242
f 245 249 246
f 247 249 245
f 247 250 249
f 248 250 247
f 248 278 250
f 243 252 251
f 80 243 251
f 256 252 254
f 251 252 256
f 256 254 255
f 256 255 257
f 257 255 259
f 257 259 258
f 258 259 260
f 258 260 261
f 261 260 267
f 266 275 264
f 261 267 262
f 262 268 263
f 263 268 269
f 262 267 268
f 263 274 266
f 263 269 274
f 266 274 273
f 265 270 97
f 264 272 265
f 264 271 272
f 264 275 271
f 265 272 270
f 266 273 275
f 333 242 243
f 344 253 246
f 335 244 242
f 336 245 244
f 337 246 249
f 339 248 247
f 338 247 245
f 340 249 250
f 341 250 278
f 343 252 253
f 345 254 252
f 346 255 254
f 342 251 256
f 347 256 257
f 348 257 258
f 349 258 261
f 350 259 255
f 351 260 259
f 358 267 260
f 352 261 262
f 353 262 263
f 354 263 266
f 355 264 265
f 356 265 97
f 357 266 264
f 359 268 267
f 360 269 268
f 365 274 269
f 206 103 270
f 361 270 272
f 363 272 271
f 366 275 273
f 364 273 274
f 362 271 275
f 276 278 248
f 277 279 276
f 281 279 277
f 276 279 278
f 280 241 282
f 280 282 281
f 281 282 283
f 281 283 285
f 285 283 284
f 281 285 279
f 285 284 287
f 285 287 286
f 286 287 288
f 286 288 290
f 290 288 289
f 290 291 292
f 290 289 291
f 292 291 293
f 292 293 295
f 292 295 294
f 294 295 296
f 294 296 297
f 294 297 626
f 367 276 248
f 368 277 276
f 369 278 279
f 370 279 285
f 371 280 281
f 373 282 241
f 372 281 277
f 374 283 282
f 375 284 283
f 376 285 286
f 378 287 284
f 379 288 287
f 377 286 290
f 380 289 288
f 381 290 292
f 382 291 289
f 384 293 291
f 386 295 293
f 383 292 294
f 387 296 295
f 385 294 626
f 388 297 296
f 138 298 35
f 298 299 207
f 299 302 208
f 300 140 209
f 301 300 210
f 302 303 211
f 303 304 212
f 304 307 213
f 305 301 214
f 306 305 215
f 307 308 216
f 308 310 217
f 309 306 218
f 310 311 219
f 311 312 220
f 312 316 221
f 313 309 222
f 314 313 223
f 315 314 224
f 140 298 138
f 300 299 298
f 140 300 298
f 301 302 299
f 300 301 299
f 301 303 302
f 301 305 303
f 305 304 303
f 305 306 304
f 306 307 304
f 306 309 307
f 309 308 307
f 309 310 308
f 309 313 310
f 313 311 310
f 313 314 311
f 314 312 311
f 314 316 312
f 314 315 316
f 316 317 225
f 317 319 226
f 318 315 227
f 319 320 228
f 320 322 229
f 321 318 230
f 324 321 233
f 322 323 231
f 323 326 232
f 325 324 234
f 326 328 235
f 327 325 236
f 331 327 240
f 328 329 237
f 329 330 238
f 330 332 239
f 332 373 241
f 315 317 316
f 315 318 317
f 318 319 317
f 318 321 319
f 321 320 319
f 321 322 320
f 321 324 322
f 324 323 322
f 324 325 323
f 325 326 323
f 325 328 326
f 325 327 328
f 327 329 328
f 327 331 329
f 331 330 329
f 331 371 332
f 331 332 330
f 333 335 242
f 334 333 243
f 335 336 244
f 337 344 246
f 340 337 249
f 338 339 247
f 339 367 248
f 336 338 245
f 341 340 250
f 369 341 278
f 342 183 251
f 344 343 253
f 343 345 252
f 345 346 254
f 347 342 256
f 348 347 257
f 349 348 258
f 352 349 261
f 346 350 255
f 350 351 259
f 351 358 260
f 353 352 262
f 354 353 263
f 357 354 266
f 356 355 265
f 355 357 264
f 358 359 267
f 359 360 268
f 360 365 269
f 361 206 270
f 363 361 272
f 362 363 271
f 364 366 273
f 365 364 274
f 366 362 275
f 333 334 343
f 333 343 344
f 333 344 337
f 336 335 337
f 335 333 337
f 336 337 340
f 338 336 340
f 338 340 341
f 339 338 341
f 339 341 369
f 334 342 343
f 183 342 334
f 347 345 343
f 342 347 343
f 347 346 345
f 347 348 346
f 348 350 346
f 348 349 350
f 349 351 350
f 349 352 351
f 352 358 351
f 357 355 366
f 352 353 358
f 353 354 359
f 354 360 359
f 353 359 358
f 354 357 365
f 354 365 360
f 357 364 365
f 356 200 361
f 355 356 363
f 355 363 362
f 355 362 366
f 356 361 363
f 357 366 364
f 367 368 276
f 368 372 277
f 370 369 279
f 371 331 280
f 372 371 281
f 373 374 282
f 374 375 283
f 375 378 284
f 376 370 285
f 377 376 286
f 378 379 287
f 381 377 290
f 379 380 288
f 380 382 289
f 382 384 291
f 383 381 292
f 384 386 293
f 385 383 294
f 386 387 295
f 719 385 626
f 387 388 296
f 367 339 369
f 368 367 370
f 372 368 370
f 367 369 370
f 371 373 332
f 371 372 373
f 372 374 373
f 372 376 374
f 376 375 374
f 372 370 376
f 376 378 375
f 376 377 378
f 377 379 378
f 377 381 379
f 381 380 379
f 381 383 382
f 381 382 380
f 383 384 382
f 383 386 384
f 383 385 386
f 385 387 386
f 385 388 387
f 385 719 388
f 389 391 390
f 390 391 393
f 390 393 392
f 392 393 395
f 392 395 394
f 394 395 396
f 396 397 398
f 396 395 397
f 398 397 399
f 399 397 401
f 399 401 400
f 400 401 403
f 403 401 406
f 406 401 402
f 403 406 404
f 404 406 407
f 406 402 410
f 404 407 405
f 405 407 454
f 454 407 455
f 410 402 408
f 411 408 409
f 410 408 411
f 411 409 444
f 444 409 440
f 490 389 390
f 494 393 391
f 491 390 392
f 493 392 394
f 495 394 396
f 496 395 393
f 497 396 398
f 498 397 395
f 499 398 399
f 502 401 397
f 500 399 400
f 501 400 403
f 503 402 401
f 504 403 404
f 505 404 405
f 507 406 410
f 508 407 406
f 506 405 454
f 556 455 407
f 509 408 402
f 510 409 408
f 511 410 411
f 512 411 444
f 413 424 412
f 418 424 413
f 416 426 414
f 412 424 416
f 416 424 426
f 414 426 415
f 415 426 427
f 419 425 417
f 420 428 419
f 417 423 418
f 417 425 423
f 419 428 425
f 421 428 420
f 422 429 421
f 421 429 428
f 422 597 429
f 418 423 424
f 415 427 430
f 430 427 431
f 431 427 434
f 431 434 432
f 432 435 433
f 432 434 435
f 433 435 437
f 437 435 436
f 451 436 438
f 437 436 451
f 451 438 439
f 451 439 616
f 442 446 441
f 443 448 442
f 443 453 448
f 440 445 444
f 441 445 440
f 441 446 445
f 442 447 446
f 442 448 447
f 450 452 449
f 449 453 443
f 449 452 453
f 451 452 450
f 451 616 452
f 519 418 413
f 514 413 412
f 513 412 416
f 515 414 415
f 517 416 414
f 518 417 418
f 520 419 417
f 521 420 419
f 522 421 420
f 523 422 421
f 525 424 423
f 526 425 428
f 524 423 425
f 527 426 424
f 528 427 426
f 529 428 429
f 530 429 597
f 516 415 430
f 531 430 431
f 532 431 432
f 533 432 433
f 534 433 437
f 535 434 427
f 536 435 434
f 537 436 435
f 538 437 451
f 539 438 436
f 540 439 438
f 541 440 409
f 542 441 440
f 543 442 441
f 544 443 442
f 545 444 445
f 546 445 446
f 547 446 447
f 549 448 453
f 548 447 448
f 550 449 443
f 551 450 449
f 554 453 452
f 552 451 450
f 553 452 616
f 454 455 456
f 456 455 459
f 456 459 457
f 457 459 458
f 458 459 460
f 458 460 461
f 461 460 462
f 461 462 463
f 463 462 464
f 464 462 465
f 464 465 467
f 467 465 466
f 467 466 468
f 468 466 469
f 468 469 470
f 470 469 471
f 555 454 456
f 560 459 455
f 557 456 457
f 558 457 458
f 559 458 461
f 561 460 459
f 563 462 460
f 562 461 463
f 564 463 464
f 566 465 462
f 567 466 465
f 565 464 467
f 568 467 468
f 570 469 466
f 569 468 470
f 571 470 471
f 471 469 472
f 471 472 475
f 475 472 473
f 475 473 476
f 476 473 477
f 477 473 474
f 477 474 479
f 479 474 478
f 479 478 480
f 480 478 481
f 484 481 482
f 480 481 483
f 483 481 484
f 484 482 485
f 485 482 486
f 485 486 488
f 488 486 489
f 489 486 487
f 489 487 650
f 573 472 469
f 572 471 475
f 574 473 472
f 575 474 473
f 576 475 476
f 577 476 477
f 578 477 479
f 579 478 474
f 580 479 480
f 581 480 483
f 582 481 478
f 583 482 481
f 584 483 484
f 585 484 485
f 587 486 482
f 588 487 486
f 586 485 488
f 589 488 489
f 590 489 650
f 491 490 390
f 492 494 391
f 493 491 392
f 494 496 393
f 495 493 394
f 497 495 396
f 499 497 398
f 496 498 395
f 500 499 399
f 498 502 397
f 501 500 400
f 502 503 401
f 504 501 403
f 505 504 404
f 506 505 405
f 507 508 406
f 511 507 410
f 508 556 407
f 503 509 402
f 509 510 408
f 510 541 409
f 512 511 411
f 545 512 444
f 490 491 492
f 491 494 492
f 491 493 494
f 493 496 494
f 493 495 496
f 495 497 496
f 497 499 498
f 497 498 496
f 499 500 498
f 500 502 498
f 500 501 502
f 501 504 502
f 504 507 502
f 507 503 502
f 504 505 507
f 505 508 507
f 507 511 503
f 505 506 508
f 506 555 508
f 555 556 508
f 511 509 503
f 512 510 509
f 511 512 509
f 512 545 510
f 545 541 510
f 514 519 413
f 513 514 412
f 517 513 416
f 516 515 415
f 515 517 414
f 519 518 418
f 518 520 417
f 520 521 419
f 521 522 420
f 522 523 421
f 524 525 423
f 529 526 428
f 526 524 425
f 525 527 424
f 527 528 426
f 530 529 429
f 531 516 430
f 532 531 431
f 533 532 432
f 534 533 433
f 538 534 437
f 528 535 427
f 535 536 434
f 536 537 435
f 537 539 436
f 552 538 451
f 539 540 438
f 540 705 439
f 541 542 440
f 543 544 442
f 542 543 441
f 546 545 445
f 547 546 446
f 548 547 447
f 549 548 448
f 551 552 450
f 550 551 449
f 544 550 443
f 553 554 452
f 709 553 616
f 554 549 453
f 514 513 525
f 519 514 525
f 517 515 527
f 513 517 525
f 517 527 525
f 515 516 527
f 516 528 527
f 520 518 526
f 521 520 529
f 518 519 524
f 518 524 526
f 520 526 529
f 522 521 529
f 523 522 530
f 522 529 530
f 523 530 690
f 519 525 524
f 516 531 528
f 531 532 528
f 532 535 528
f 532 533 535
f 533 534 536
f 533 536 535
f 534 538 536
f 538 537 536
f 552 539 537
f 538 552 537
f 552 540 539
f 552 709 540
f 543 542 547
f 544 543 549
f 544 549 554
f 541 545 546
f 542 541 546
f 542 546 547
f 543 547 548
f 543 548 549
f 551 550 553
f 550 544 554
f 550 554 553
f 552 551 553
f 552 553 709
f 555 506 454
f 557 555 456
f 556 560 455
f 558 557 457
f 559 558 458
f 560 561 459
f 562 559 461
f 561 563 460
f 563 566 462
f 564 562 463
f 565 564 464
f 566 567 465
f 568 565 467
f 569 568 468
f 567 570 466
f 571 569 470
f 572 571 471
f 555 557 556
f 557 560 556
f 557 558 560
f 558 559 560
f 559 561 560
f 559 562 561
f 562 563 561
f 562 564 563
f 564 565 563
f 565 566 563
f 565 568 566
f 568 567 566
f 568 569 567
f 569 570 567
f 569 571 570
f 571 572 570
f 570 573 469
f 573 574 472
f 574 575 473
f 575 579 474
f 576 572 475
f 577 576 476
f 578 577 477
f 580 578 479
f 581 580 480
f 579 582 478
f 582 583 481
f 584 581 483
f 585 584 484
f 586 585 485
f 583 587 482
f 587 588 486
f 589 586 488
f 590 589 489
f 743 590 650
f 572 573 570
f 572 576 573
f 576 574 573
f 576 577 574
f 577 578 574
f 578 575 574
f 578 580 575
f 580 579 575
f 580 581 579
f 581 582 579
f 585 583 582
f 581 584 582
f 584 585 582
f 585 586 583
f 586 587 583
f 586 589 587
f 589 590 587
f 590 588 587
f 590 743 588
f 591 597 422
f 592 597 591
f 592 598 597
f 593 598 592
f 594 599 593
f 595 599 594
f 593 599 598
f 596 599 595
f 602 599 596
f 602 600 599
f 603 600 602
f 603 601 600
f 604 601 603
f 609 601 604
f 611 608 606
f 613 607 608
f 609 605 601
f 610 605 609
f 610 606 605
f 611 606 610
f 614 608 611
f 615 439 612
f 615 612 607
f 615 607 613
f 615 616 439
f 613 608 614
f 615 617 616
f 618 617 615
f 618 620 617
f 619 620 618
f 619 621 620
f 622 621 619
f 622 624 621
f 623 624 622
f 623 625 624
f 634 625 623
f 684 591 422
f 685 592 591
f 686 593 592
f 687 594 593
f 688 595 594
f 689 596 595
f 690 597 598
f 691 598 599
f 692 599 600
f 693 600 601
f 694 601 605
f 695 602 596
f 696 603 602
f 697 604 603
f 702 609 604
f 698 605 606
f 699 606 608
f 700 607 612
f 701 608 607
f 703 610 609
f 704 611 610
f 705 612 439
f 706 613 614
f 707 614 611
f 708 615 613
f 709 616 617
f 711 618 615
f 710 617 620
f 712 619 618
f 713 620 621
f 715 622 619
f 716 623 622
f 714 621 624
f 727 634 623
f 717 624 625
f 718 625 637
f 626 297 627
f 626 627 628
f 628 627 629
f 628 629 631
f 628 631 630
f 630 631 632
f 630 633 640
f 630 632 633
f 635 637 634
f 636 638 635
f 634 637 625
f 635 638 637
f 639 644 636
f 640 641 643
f 640 633 641
f 640 643 639
f 639 643 642
f 636 644 638
f 639 646 644
f 644 646 647
f 644 647 645
f 645 647 675
f 639 642 646
f 719 626 628
f 720 627 297
f 722 629 627
f 724 631 629
f 721 628 630
f 725 632 631
f 723 630 640
f 726 633 632
f 728 635 634
f 729 636 635
f 730 637 638
f 731 638 644
f 732 639 636
f 733 640 639
f 734 641 633
f 736 643 641
f 735 642 643
f 738 645 674
f 737 644 645
f 768 675 647
f 739 646 642
f 740 647 646
f 648 650 487
f 648 651 650
f 649 652 648
f 648 652 651
f 654 662 653
f 653 655 649
f 649 655 652
f 653 656 655
f 653 662 656
f 659 665 657
f 658 666 659
f 658 681 666
f 659 666 665
f 660 663 654
f 657 661 660
f 657 664 661
f 660 661 663
f 654 663 662
f 657 665 664
f 741 648 487
f 742 649 648
f 743 650 651
f 744 651 652
f 746 653 649
f 747 654 653
f 745 652 655
f 748 655 656
f 749 656 662
f 750 657 660
f 751 658 659
f 752 659 657
f 759 666 681
f 753 660 654
f 754 661 664
f 755 662 663
f 756 663 661
f 757 664 665
f 758 665 666
f 667 671 669
f 670 683 668
f 669 673 670
f 669 671 673
f 670 673 672
f 670 672 683
f 645 676 674
f 674 676 677
f 645 675 676
f 674 677 667
f 667 677 678
f 667 678 671
f 679 682 658
f 668 680 679
f 668 683 680
f 679 680 682
f 658 682 681
f 767 674 667
f 760 667 669
f 763 670 668
f 761 668 679
f 762 669 670
f 766 673 671
f 765 672 673
f 769 676 675
f 771 678 677
f 770 677 676
f 764 671 678
f 772 679 658
f 773 680 683
f 774 681 682
f 775 682 680
f 776 683 672
f 523 684 422
f 684 685 591
f 685 686 592
f 686 687 593
f 687 688 594
f 688 689 595
f 689 695 596
f 690 530 597
f 691 690 598
f 692 691 599
f 693 692 600
f 694 693 601
f 695 696 602
f 696 697 603
f 697 702 604
f 698 694 605
f 699 698 606
f 701 699 608
f 700 701 607
f 705 700 612
f 702 703 609
f 703 704 610
f 704 707 611
f 707 706 614
f 706 708 613
f 708 711 615
f 710 709 617
f 711 712 618
f 712 715 619
f 713 710 620
f 714 713 621
f 715 716 622
f 717 714 624
f 716 727 623
f 718 717 625
f 684 523 690
f 685 684 690
f 685 690 691
f 686 685 691
f 687 686 692
f 688 687 692
f 686 691 692
f 689 688 692
f 695 689 692
f 695 692 693
f 696 695 693
f 696 693 694
f 697 696 694
f 702 697 694
f 704 699 701
f 706 701 700
f 702 694 698
f 703 702 698
f 703 698 699
f 704 703 699
f 707 704 701
f 708 705 540
f 708 700 705
f 708 706 700
f 708 540 709
f 706 707 701
f 708 709 710
f 711 708 710
f 711 710 713
f 712 711 713
f 712 713 714
f 715 712 714
f 715 714 717
f 716 715 717
f 716 717 718
f 727 716 718
f 388 720 297
f 720 722 627
f 721 719 628
f 722 724 629
f 723 721 630
f 724 725 631
f 733 723 640
f 725 726 632
f 726 734 633
f 727 728 634
f 728 729 635
f 730 718 637
f 731 730 638
f 729 732 636
f 732 733 639
f 734 736 641
f 736 735 643
f 737 731 644
f 738 737 645
f 735 739 642
f 739 740 646
f 740 768 647
f 719 720 388
f 719 721 720
f 721 722 720
f 721 724 722
f 721 723 724
f 723 725 724
f 723 733 726
f 723 726 725
f 728 727 730
f 729 728 731
f 727 718 730
f 728 730 731
f 732 729 737
f 733 736 734
f 733 734 726
f 733 732 736
f 732 735 736
f 729 731 737
f 732 737 739
f 737 740 739
f 737 738 740
f 738 768 740
f 732 739 735
f 588 741 487
f 741 742 648
f 744 743 651
f 745 744 652
f 742 746 649
f 746 747 653
f 748 745 655
f 749 748 656
f 755 749 662
f 753 750 660
f 751 772 658
f 750 752 657
f 752 751 659
f 747 753 654
f 756 755 663
f 754 756 661
f 758 757 665
f 757 754 664
f 759 758 666
f 741 588 743
f 741 743 744
f 742 741 745
f 741 744 745
f 747 746 755
f 746 742 748
f 742 745 748
f 746 748 749
f 746 749 755
f 752 750 758
f 751 752 759
f 751 759 774
f 752 758 759
f 753 747 756
f 750 753 754
f 750 754 757
f 753 756 754
f 747 755 756
f 750 757 758
f 760 767 667
f 762 760 669
f 772 761 679
f 761 763 668
f 763 762 670
f 764 766 671
f 765 776 672
f 766 765 673
f 767 738 674
f 768 769 675
f 769 770 676
f 770 771 677
f 771 764 678
f 773 775 680
f 775 774 682
f 774 759 681
f 776 773 683
f 760 762 764
f 763 761 776
f 762 763 766
f 762 766 764
f 763 765 766
f 763 776 765
f 738 767 769
f 767 770 769
f 738 769 768
f 767 760 770
f 760 771 770
f 760 764 771
f 772 751 775
f 761 772 773
f 761 773 776
f 772 775 773
f 751 774 775

